<mxfile host="app.diagrams.net" modified="2023-10-18T08:44:39.599Z" agent="Mozilla/5.0 (Macintosh; Intel Mac OS X 10_15_7) AppleWebKit/537.36 (KHTML, like Gecko) Chrome/118.0.0.0 Safari/537.36" etag="OcO8jk0yYZrzG3smR30Q" version="22.0.4" type="github">
  <diagram name="第 1 页" id="sgtRdmh-m-D6F96UmL8p">
    <mxGraphModel dx="1434" dy="790" grid="1" gridSize="10" guides="1" tooltips="1" connect="1" arrows="1" fold="1" page="1" pageScale="1" pageWidth="827" pageHeight="1169" math="0" shadow="0">
      <root>
        <mxCell id="0" />
        <mxCell id="1" parent="0" />
        <mxCell id="mkjeztPDrbwPcCoNo9Rp-3" style="edgeStyle=orthogonalEdgeStyle;rounded=0;orthogonalLoop=1;jettySize=auto;html=1;exitX=1;exitY=0.5;exitDx=0;exitDy=0;" edge="1" parent="1" source="mkjeztPDrbwPcCoNo9Rp-1" target="mkjeztPDrbwPcCoNo9Rp-2">
          <mxGeometry relative="1" as="geometry" />
        </mxCell>
        <mxCell id="mkjeztPDrbwPcCoNo9Rp-1" value="" style="rounded=0;whiteSpace=wrap;html=1;" vertex="1" parent="1">
          <mxGeometry x="50" y="60" width="120" height="60" as="geometry" />
        </mxCell>
        <mxCell id="mkjeztPDrbwPcCoNo9Rp-2" value="" style="ellipse;whiteSpace=wrap;html=1;aspect=fixed;" vertex="1" parent="1">
          <mxGeometry x="390" y="250" width="80" height="80" as="geometry" />
        </mxCell>
      </root>
    </mxGraphModel>
  </diagram>
</mxfile>
